# xmcd
#
# Track frame offsets:
#	150
#	13442
#	26819
#	45503
#	62830
#	84258
#	97662
#	107130
#	116579
#	133779
#	148153
#	169040
#	182909
#	199422
#	212843
#	228251
#	249058
#	266782
#	293734
#
# Disc length: 4135
#
# Revision: 1
# Processed by: cddbd v1.5.1PL0 Copyright (c) Steve Scherf et al.
# Submitted via: ExactAudioCopy v0.95a5
# Normalized: r0:DSETVAR1,TDELIM( - )
#
DISCID=14102513
DTITLE=Various Artist - Woodyfaction Guaranteed Vol 2
DYEAR=2002
DGENRE=Country
TTITLE0=Gilliam Welsh and David Rawlings - I Want to Sing That Rock'n'roll
TTITLE1=Beachwood Sparks - The Sun Surrounds Me
TTITLE2=Jim White - Handcuffed to a Fence in Mississippi
TTITLE3=Alejandro Escovedo - Rosalie
TTITLE4=One Fell Swoop - Missouri Roads
TTITLE5=Trailer Bird - High Sea
TTITLE6=Wayne Hancock - Miller Jack and Mad Dog
TTITLE7=Kelly Hogan - In Time
TTITLE8=Matthew Ryan - I Still Pray
TTITLE9=Nick Lowe - I'm a Mess
TTITLE10=Mary Gauthier - Karla Fayene
TTITLE11=The Handsome Family - Peace in the Valley Once Again
TTITLE12=Fred Eaglesmith - Alcohol and Pills
TTITLE13=Kasey Chambers - A Little Bit Lonesome
TTITLE14=Clem Snide - Messiah Complex Blues
TTITLE15=Mark Insley - Did I Wake You?
TTITLE16=Lucinda Williams - Blue
TTITLE17=Ryan Adams - The Bar is a Beautiful Place
TTITLE18=Delbert Mcclinton - Don't Leave Home Without It
EXTD=
EXTT0=
EXTT1=
EXTT2=
EXTT3=
EXTT4=
EXTT5=
EXTT6=
EXTT7=
EXTT8=
EXTT9=
EXTT10=
EXTT11=
EXTT12=
EXTT13=
EXTT14=
EXTT15=
EXTT16=
EXTT17=
EXTT18=
PLAYORDER=
